<svg xmlns="http://www.w3.org/2000/svg" viewBox="0 0 32 32" width="32" height="32">
  <!-- Bastille fortress icon -->
  <!-- Main wall -->
  <rect x="4" y="14" width="24" height="14" rx="1" fill="#1e293b"/>
  <!-- Gate arch -->
  <path d="M12 28v-8a4 4 0 0 1 8 0v8" fill="#0f172a"/>
  <!-- Left tower -->
  <rect x="2" y="10" width="7" height="18" rx="1" fill="#334155"/>
  <!-- Right tower -->
  <rect x="23" y="10" width="7" height="18" rx="1" fill="#334155"/>
  <!-- Center tower -->
  <rect x="11" y="6" width="10" height="8" rx="1" fill="#475569"/>
  <!-- Battlements left -->
  <rect x="2" y="8" width="2.5" height="3" fill="#334155"/>
  <rect x="6.5" y="8" width="2.5" height="3" fill="#334155"/>
  <!-- Battlements right -->
  <rect x="23" y="8" width="2.5" height="3" fill="#334155"/>
  <rect x="27.5" y="8" width="2.5" height="3" fill="#334155"/>
  <!-- Battlements center -->
  <rect x="11" y="4" width="2.5" height="3" fill="#475569"/>
  <rect x="14.75" y="4" width="2.5" height="3" fill="#475569"/>
  <rect x="18.5" y="4" width="2.5" height="3" fill="#475569"/>
  <!-- Flag -->
  <line x1="16" y1="4" x2="16" y2="0.5" stroke="#94a3b8" stroke-width="0.8"/>
  <path d="M16 0.5l4.5 1.5L16 3.5z" fill="#dc2626"/>
</svg>
